<svg xmlns="http://www.w3.org/2000/svg" width="51" height="20" viewBox="0 0 51 20" fill="none">
<rect width="51" height="20" rx="6" fill="#03C21B"/>
<path d="M12.8555 9.06641V10.666C12.8555 11.36 12.7814 11.9588 12.6333 12.4624C12.4852 12.9618 12.2715 13.3722 11.9922 13.6938C11.7171 14.0112 11.3892 14.2461 11.0083 14.3984C10.6274 14.5508 10.2043 14.627 9.73877 14.627C9.36637 14.627 9.01937 14.5804 8.69775 14.4873C8.37614 14.39 8.08626 14.2397 7.82812 14.0366C7.57422 13.8335 7.35417 13.5775 7.16797 13.2686C6.986 12.9554 6.84635 12.583 6.74902 12.1514C6.65169 11.7197 6.60303 11.2246 6.60303 10.666V9.06641C6.60303 8.3724 6.67708 7.77783 6.8252 7.28271C6.97754 6.78337 7.19124 6.375 7.46631 6.05762C7.74561 5.74023 8.07568 5.50749 8.45654 5.35938C8.8374 5.20703 9.26058 5.13086 9.72607 5.13086C10.0985 5.13086 10.4434 5.17952 10.7607 5.27686C11.0824 5.36995 11.3722 5.51595 11.6304 5.71484C11.8885 5.91374 12.1086 6.16976 12.2905 6.48291C12.4725 6.79183 12.6121 7.16211 12.7095 7.59375C12.8068 8.02116 12.8555 8.51204 12.8555 9.06641ZM11.021 10.9072V8.81885C11.021 8.48454 11.002 8.19255 10.9639 7.94287C10.93 7.6932 10.8771 7.48161 10.8052 7.30811C10.7332 7.13037 10.6444 6.98649 10.5386 6.87646C10.4328 6.76644 10.3122 6.68604 10.1768 6.63525C10.0413 6.58447 9.89111 6.55908 9.72607 6.55908C9.51872 6.55908 9.33464 6.59928 9.17383 6.67969C9.01725 6.76009 8.88395 6.88916 8.77393 7.06689C8.6639 7.2404 8.57926 7.47314 8.52002 7.76514C8.46501 8.0529 8.4375 8.40413 8.4375 8.81885V10.9072C8.4375 11.2415 8.45443 11.5356 8.48828 11.7896C8.52637 12.0435 8.58138 12.2614 8.65332 12.4434C8.72949 12.6211 8.81836 12.7671 8.91992 12.8813C9.02572 12.9914 9.14632 13.0718 9.28174 13.1226C9.42139 13.1733 9.57373 13.1987 9.73877 13.1987C9.94189 13.1987 10.1217 13.1585 10.2783 13.0781C10.4391 12.9935 10.5745 12.8623 10.6846 12.6846C10.7988 12.5026 10.8835 12.2656 10.9385 11.9736C10.9935 11.6816 11.021 11.3262 11.021 10.9072ZM14.3408 9.86621V9.61865C14.3408 9.22087 14.4657 8.89502 14.7153 8.64111C14.9692 8.38721 15.312 8.26025 15.7437 8.26025C16.1795 8.26025 16.5244 8.38721 16.7783 8.64111C17.0322 8.89502 17.1592 9.22087 17.1592 9.61865V9.86621C17.1592 10.2598 17.0322 10.5835 16.7783 10.8374C16.5286 11.0871 16.1859 11.2119 15.75 11.2119C15.3184 11.2119 14.9756 11.0871 14.7217 10.8374C14.4678 10.5835 14.3408 10.2598 14.3408 9.86621ZM24.8652 9.06641V10.666C24.8652 11.36 24.7912 11.9588 24.6431 12.4624C24.495 12.9618 24.2812 13.3722 24.002 13.6938C23.7269 14.0112 23.3989 14.2461 23.0181 14.3984C22.6372 14.5508 22.214 14.627 21.7485 14.627C21.3761 14.627 21.0291 14.5804 20.7075 14.4873C20.3859 14.39 20.096 14.2397 19.8379 14.0366C19.584 13.8335 19.3639 13.5775 19.1777 13.2686C18.9958 12.9554 18.8561 12.583 18.7588 12.1514C18.6615 11.7197 18.6128 11.2246 18.6128 10.666V9.06641C18.6128 8.3724 18.6868 7.77783 18.835 7.28271C18.9873 6.78337 19.201 6.375 19.4761 6.05762C19.7554 5.74023 20.0854 5.50749 20.4663 5.35938C20.8472 5.20703 21.2703 5.13086 21.7358 5.13086C22.1082 5.13086 22.4531 5.17952 22.7705 5.27686C23.0921 5.36995 23.382 5.51595 23.6401 5.71484C23.8983 5.91374 24.1183 6.16976 24.3003 6.48291C24.4823 6.79183 24.6219 7.16211 24.7192 7.59375C24.8166 8.02116 24.8652 8.51204 24.8652 9.06641ZM23.0308 10.9072V8.81885C23.0308 8.48454 23.0117 8.19255 22.9736 7.94287C22.9398 7.6932 22.8869 7.48161 22.8149 7.30811C22.743 7.13037 22.6541 6.98649 22.5483 6.87646C22.4425 6.76644 22.3219 6.68604 22.1865 6.63525C22.0511 6.58447 21.9009 6.55908 21.7358 6.55908C21.5285 6.55908 21.3444 6.59928 21.1836 6.67969C21.027 6.76009 20.8937 6.88916 20.7837 7.06689C20.6737 7.2404 20.589 7.47314 20.5298 7.76514C20.4748 8.0529 20.4473 8.40413 20.4473 8.81885V10.9072C20.4473 11.2415 20.4642 11.5356 20.498 11.7896C20.5361 12.0435 20.5911 12.2614 20.6631 12.4434C20.7393 12.6211 20.8281 12.7671 20.9297 12.8813C21.0355 12.9914 21.1561 13.0718 21.2915 13.1226C21.4312 13.1733 21.5835 13.1987 21.7485 13.1987C21.9517 13.1987 22.1315 13.1585 22.2881 13.0781C22.4489 12.9935 22.5843 12.8623 22.6943 12.6846C22.8086 12.5026 22.8932 12.2656 22.9482 11.9736C23.0033 11.6816 23.0308 11.3262 23.0308 10.9072ZM26.3506 9.86621V9.61865C26.3506 9.22087 26.4754 8.89502 26.7251 8.64111C26.979 8.38721 27.3218 8.26025 27.7534 8.26025C28.1893 8.26025 28.5342 8.38721 28.7881 8.64111C29.042 8.89502 29.1689 9.22087 29.1689 9.61865V9.86621C29.1689 10.2598 29.042 10.5835 28.7881 10.8374C28.5384 11.0871 28.1956 11.2119 27.7598 11.2119C27.3281 11.2119 26.9854 11.0871 26.7314 10.8374C26.4775 10.5835 26.3506 10.2598 26.3506 9.86621ZM35.1104 5.23877V14.5H33.2822V7.34619L31.0859 8.04443V6.60352L34.9136 5.23877H35.1104ZM44.4414 13.0718V14.5H38.1191V13.2812L41.1089 10.0757C41.4093 9.74137 41.6463 9.44727 41.8198 9.19336C41.9933 8.93522 42.1182 8.70459 42.1943 8.50146C42.2747 8.29411 42.3149 8.09733 42.3149 7.91113C42.3149 7.63184 42.2684 7.39274 42.1753 7.19385C42.0822 6.99072 41.9447 6.83415 41.7627 6.72412C41.585 6.6141 41.3649 6.55908 41.1025 6.55908C40.8232 6.55908 40.582 6.62679 40.3789 6.76221C40.18 6.89762 40.0277 7.08594 39.9219 7.32715C39.8203 7.56836 39.7695 7.84131 39.7695 8.146H37.9351C37.9351 7.59587 38.0662 7.09229 38.3286 6.63525C38.591 6.17399 38.9613 5.80794 39.4395 5.53711C39.9176 5.26204 40.4847 5.12451 41.1406 5.12451C41.7881 5.12451 42.334 5.23031 42.7783 5.44189C43.2269 5.64925 43.5654 5.94971 43.7939 6.34326C44.0267 6.73258 44.1431 7.19808 44.1431 7.73975C44.1431 8.04443 44.0944 8.34277 43.9971 8.63477C43.8997 8.92253 43.7601 9.21029 43.5781 9.49805C43.4004 9.78158 43.1846 10.0693 42.9307 10.3613C42.6768 10.6533 42.3953 10.9559 42.0864 11.269L40.4805 13.0718H44.4414Z" fill="white"/>
</svg>