<svg width="18" height="18" viewBox="0 0 18 18" fill="none" xmlns="http://www.w3.org/2000/svg">
<path fill-rule="evenodd" clip-rule="evenodd" d="M3 7.3501C3 4.45585 5.35575 2.1001 8.25 2.1001C11.1442 2.1001 13.5 4.45585 13.5 7.3501C13.5 10.2443 11.1442 12.6001 8.25 12.6001C5.35575 12.6001 3 10.2443 3 7.3501ZM16.5 15.6001C16.6406 15.4595 16.7196 15.2687 16.7196 15.0698C16.7196 14.871 16.6406 14.6802 16.5 14.5396L13.5187 11.5583C14.478 10.3656 15.0006 8.88072 15 7.3501C15 3.62785 11.9722 0.600098 8.25 0.600098C4.52775 0.600098 1.5 3.62785 1.5 7.3501C1.5 11.0723 4.52775 14.1001 8.25 14.1001C9.78062 14.1007 11.2655 13.5781 12.4582 12.6188L15.4395 15.6001C15.5801 15.7407 15.7709 15.8197 15.9697 15.8197C16.1686 15.8197 16.3594 15.7407 16.5 15.6001Z" fill="#333333" fill-opacity="0.5"/>
</svg>
